<svg xmlns="http://www.w3.org/2000/svg" viewBox="0 0 960 456" role="img" aria-labelledby="t"><title id="t">Palgrave Macmillan</title><g fill="#6d1d4f"><path d="M118 74c-36 0-65 29-65 65v178c0 36 29 65 65 65h724c36 0 65-29 65-65V139c0-36-29-65-65-65H118zm0 30h724c19 0 35 16 35 35v178c0 19-16 35-35 35H118c-19 0-35-16-35-35V139c0-19 16-35 35-35z"/><text x="480" y="225" text-anchor="middle" font-family="Georgia,serif" font-size="66" font-weight="700">Palgrave</text><text x="480" y="295" text-anchor="middle" font-family="Arial,Helvetica,sans-serif" font-size="54" font-weight="600">Macmillan</text></g></svg>
